<svg width="24" height="24" viewBox="0 0 24 24" fill="none" xmlns="http://www.w3.org/2000/svg">
<path d="M9 22H15C20 22 22 20 22 15V9C22 4 20 2 15 2H9C4 2 2 4 2 9V15C2 20 4 22 9 22Z" stroke="#9197B3" stroke-width="1.5" stroke-linecap="round" stroke-linejoin="round"/>
<path d="M8.535 8.24999L8.70375 8.58374L8.91 8.99999H10.5V10.875H7.5V8.24999H8.535ZM8.7675 7.49999H7.125C7.02554 7.49999 6.93016 7.5395 6.85983 7.60983C6.78951 7.68015 6.75 7.77554 6.75 7.87499V11.25C6.75 11.3494 6.78951 11.4448 6.85983 11.5152C6.93016 11.5855 7.02554 11.625 7.125 11.625H10.875C10.9745 11.625 11.0698 11.5855 11.1402 11.5152C11.2105 11.4448 11.25 11.3494 11.25 11.25V8.62499C11.25 8.52554 11.2105 8.43016 11.1402 8.35983C11.0698 8.2895 10.9745 8.24999 10.875 8.24999H9.375L9.105 7.70624C9.07355 7.64383 9.02529 7.59145 8.96565 7.555C8.90602 7.51856 8.83739 7.49951 8.7675 7.49999ZM14.535 8.24999L14.7037 8.58374L14.91 8.99999H16.5V10.875H13.5V8.24999H14.535ZM14.7675 7.49999H13.125C13.0255 7.49999 12.9302 7.5395 12.8598 7.60983C12.7895 7.68015 12.75 7.77554 12.75 7.87499V11.25C12.75 11.3494 12.7895 11.4448 12.8598 11.5152C12.9302 11.5855 13.0255 11.625 13.125 11.625H16.875C16.9745 11.625 17.0698 11.5855 17.1402 11.5152C17.2105 11.4448 17.25 11.3494 17.25 11.25V8.62499C17.25 8.52554 17.2105 8.43016 17.1402 8.35983C17.0698 8.2895 16.9745 8.24999 16.875 8.24999H15.375L15.105 7.70624C15.0736 7.64383 15.0253 7.59145 14.9657 7.555C14.906 7.51856 14.8374 7.49951 14.7675 7.49999ZM8.535 13.125L8.70375 13.4587L8.91 13.875H10.5V15.75H7.5V13.125H8.535ZM8.7675 12.375H7.125C7.02554 12.375 6.93016 12.4145 6.85983 12.4848C6.78951 12.5552 6.75 12.6505 6.75 12.75V16.125C6.75 16.2245 6.78951 16.3198 6.85983 16.3902C6.93016 16.4605 7.02554 16.5 7.125 16.5H10.875C10.9745 16.5 11.0698 16.4605 11.1402 16.3902C11.2105 16.3198 11.25 16.2245 11.25 16.125V13.5C11.25 13.4005 11.2105 13.3052 11.1402 13.2348C11.0698 13.1645 10.9745 13.125 10.875 13.125H9.375L9.105 12.5812C9.07355 12.5188 9.02529 12.4664 8.96565 12.43C8.90602 12.3936 8.83739 12.3745 8.7675 12.375ZM14.535 13.125L14.7037 13.4587L14.91 13.875H16.5V15.75H13.5V13.125H14.535ZM14.7675 12.375H13.125C13.0255 12.375 12.9302 12.4145 12.8598 12.4848C12.7895 12.5552 12.75 12.6505 12.75 12.75V16.125C12.75 16.2245 12.7895 16.3198 12.8598 16.3902C12.9302 16.4605 13.0255 16.5 13.125 16.5H16.875C16.9745 16.5 17.0698 16.4605 17.1402 16.3902C17.2105 16.3198 17.25 16.2245 17.25 16.125V13.5C17.25 13.4005 17.2105 13.3052 17.1402 13.2348C17.0698 13.1645 16.9745 13.125 16.875 13.125H15.375L15.105 12.5812C15.0736 12.5188 15.0253 12.4664 14.9657 12.43C14.906 12.3936 14.8374 12.3745 14.7675 12.375Z" fill="#9197B3"/>
</svg>
