<svg width="24" height="24" viewBox="0 0 24 24" fill="none" xmlns="http://www.w3.org/2000/svg">
<path d="M9 22H15C20 22 22 20 22 15V9C22 4 20 2 15 2H9C4 2 2 4 2 9V15C2 20 4 22 9 22Z" stroke="#9197B3" stroke-width="1.5" stroke-linecap="round" stroke-linejoin="round"/>
<path d="M13.75 12L8.86576 16.8843C8.6337 17.1163 8.31895 17.2467 7.99076 17.2467C7.66257 17.2467 7.34783 17.1163 7.11576 16.8843C6.8837 16.6522 6.75333 16.3375 6.75333 16.0093C6.75333 15.6811 6.8837 15.3663 7.11576 15.1343L12 10.25M15.5 13.75L17.8333 11.4167M17.5417 11.7084L16.4252 10.5919C16.2064 10.3731 16.0834 10.0764 16.0833 9.76702V9.08335L14.765 7.76502C14.1143 7.11471 13.2338 6.74673 12.3138 6.74068L10.25 6.72668L10.7867 7.20502C11.1679 7.543 11.4731 7.95793 11.6822 8.42246C11.8914 8.88699 11.9997 9.39058 12 9.90002V10.8334L13.1667 12H13.8503C14.1597 12.0001 14.4564 12.123 14.6752 12.3419L15.7917 13.4584" stroke="#9197B3" stroke-linecap="round" stroke-linejoin="round"/>
</svg>
