<svg width="18" height="12" viewBox="0 0 18 12" fill="none" xmlns="http://www.w3.org/2000/svg">
<path d="M16.3852 5.06786C16.6284 5.37214 16.75 5.525 16.75 5.75C16.75 5.97571 16.6284 6.12786 16.3852 6.43214C15.2924 7.80071 12.5012 10.75 8.75 10.75C4.998 10.75 2.2076 7.8 1.1148 6.43214C0.8716 6.12786 0.75 5.975 0.75 5.75C0.75 5.52429 0.8716 5.37214 1.1148 5.06786C2.2076 3.69929 4.9988 0.75 8.75 0.75C12.502 0.75 15.2924 3.7 16.3852 5.06786Z" stroke="black" stroke-width="1.5" stroke-linecap="round" stroke-linejoin="round"/>
<path d="M11.1501 5.75C11.1501 5.18168 10.8972 4.63664 10.4472 4.23478C9.99707 3.83291 9.38662 3.60715 8.7501 3.60715C8.11358 3.60715 7.50313 3.83291 7.05304 4.23478C6.60295 4.63664 6.3501 5.18168 6.3501 5.75C6.3501 6.31833 6.60295 6.86337 7.05304 7.26523C7.50313 7.6671 8.11358 7.89286 8.7501 7.89286C9.38662 7.89286 9.99707 7.6671 10.4472 7.26523C10.8972 6.86337 11.1501 6.31833 11.1501 5.75Z" stroke="black" stroke-width="1.5" stroke-linecap="round" stroke-linejoin="round"/>
</svg>
