<svg width="24" height="24" viewBox="0 0 24 24" fill="none" xmlns="http://www.w3.org/2000/svg">
<path d="M8.86536 20.2734H15.1359C15.1642 20.2734 15.1923 20.281 15.2169 20.2949C15.2414 20.3088 15.2619 20.3285 15.2765 20.3525C15.2911 20.3767 15.2991 20.4044 15.2999 20.4326C15.3007 20.4607 15.2944 20.4888 15.2814 20.5137C14.9625 21.1065 14.4889 21.6027 13.9113 21.9482C13.3336 22.2937 12.6731 22.476 12.0001 22.4766C11.3271 22.4759 10.6666 22.2928 10.089 21.9473C9.51149 21.6018 9.0377 21.1063 8.71887 20.5137C8.70584 20.4888 8.69951 20.4607 8.70032 20.4326C8.70116 20.4044 8.70914 20.3767 8.72375 20.3525C8.73842 20.3283 8.7596 20.3088 8.7843 20.2949C8.79675 20.2879 8.80965 20.2819 8.82336 20.2783L8.86536 20.2734ZM12.0001 1.52344C13.2451 1.52349 14.352 2.42837 14.757 3.78418L14.7794 3.77734L14.755 3.78516L14.7618 3.79297C14.7745 3.80764 14.7899 3.81969 14.8068 3.8291L14.8058 3.83008L14.8087 3.83105C15.938 4.29568 16.7942 4.92372 17.4269 5.75098C18.2848 6.87075 18.7208 8.36526 18.7208 10.1895C18.7208 11.9558 18.877 13.0301 19.1632 13.8193C19.4496 14.6091 19.8665 15.1128 20.382 15.7363C20.456 15.8257 20.5334 15.9208 20.6105 16.0137C20.8086 16.253 20.934 16.5442 20.9718 16.8525C21.0096 17.161 20.9579 17.4738 20.8234 17.7539C20.5373 18.3519 19.934 18.7255 19.2423 18.7256H4.76282C4.11121 18.7255 3.53676 18.3965 3.23254 17.8604L3.17493 17.751L3.12903 17.6445C3.02997 17.3929 2.99518 17.1202 3.02844 16.8506C3.06651 16.5426 3.1917 16.2516 3.38977 16.0127C3.4675 15.9172 3.54423 15.8249 3.61926 15.7344C4.13516 15.1116 4.55172 14.609 4.83801 13.8193C5.12411 13.0301 5.27941 11.9555 5.27942 10.1885C5.27942 8.58866 5.59978 7.26971 6.24817 6.21582C6.89662 5.16206 7.87493 4.37053 9.1925 3.82812L9.19446 3.82715C9.2109 3.81796 9.22585 3.80603 9.2384 3.79199L9.24036 3.79395L9.24329 3.7832C9.6482 2.42869 10.755 1.52344 12.0001 1.52344Z" fill="#232321" stroke="#232321" stroke-width="0.046875"/>
</svg>
