<svg width="24" height="24" viewBox="0 0 24 24" fill="none" xmlns="http://www.w3.org/2000/svg">
<path d="M9 22H15C20 22 22 20 22 15V9C22 4 20 2 15 2H9C4 2 2 4 2 9V15C2 20 4 22 9 22Z" stroke="#9197B3" stroke-width="1.5" stroke-linecap="round" stroke-linejoin="round"/>
<path d="M12 17.8333V12M12 12L6.91917 9.08335M12 12L17.0808 9.08335M9.375 7.49085L14.625 10.495M11.4167 17.6758C11.594 17.7782 11.7952 17.8322 12 17.8322C12.2048 17.8322 12.406 17.7782 12.5833 17.6758L16.6667 15.3425C16.8438 15.2402 16.991 15.0931 17.0934 14.916C17.1958 14.7389 17.2498 14.5379 17.25 14.3333V9.66668C17.2498 9.46209 17.1958 9.26115 17.0934 9.08403C16.991 8.9069 16.8438 8.75981 16.6667 8.65751L12.5833 6.32418C12.406 6.22178 12.2048 6.16788 12 6.16788C11.7952 6.16788 11.594 6.22178 11.4167 6.32418L7.33333 8.65751C7.15615 8.75981 7.00899 8.9069 6.9066 9.08403C6.80422 9.26115 6.75021 9.46209 6.75 9.66668V14.3333C6.75021 14.5379 6.80422 14.7389 6.9066 14.916C7.00899 15.0931 7.15615 15.2402 7.33333 15.3425L11.4167 17.6758Z" stroke="#9197B3" stroke-linecap="round" stroke-linejoin="round"/>
</svg>
