<svg width="20" height="20" viewBox="0 0 20 20" fill="none" xmlns="http://www.w3.org/2000/svg">
<path d="M13.3333 2.5C12.8913 2.5 12.4674 2.67559 12.1548 2.98816C11.8423 3.30072 11.6667 3.72464 11.6667 4.16667V9.16667C11.6667 9.60869 11.8423 10.0326 12.1548 10.3452C12.4674 10.6577 12.8913 10.8333 13.3333 10.8333C13.5543 10.8333 13.7663 10.9211 13.9226 11.0774C14.0789 11.2337 14.1667 11.4457 14.1667 11.6667V12.5C14.1667 12.942 13.9911 13.366 13.6785 13.6785C13.366 13.9911 12.942 14.1667 12.5 14.1667C12.279 14.1667 12.067 14.2545 11.9107 14.4107C11.7545 14.567 11.6667 14.779 11.6667 15V16.6667C11.6667 16.8877 11.7545 17.0996 11.9107 17.2559C12.067 17.4122 12.279 17.5 12.5 17.5C13.8261 17.5 15.0979 16.9732 16.0355 16.0355C16.9732 15.0979 17.5 13.8261 17.5 12.5V4.16667C17.5 3.72464 17.3244 3.30072 17.0118 2.98816C16.6993 2.67559 16.2754 2.5 15.8333 2.5H13.3333Z" stroke="#C4C4C4" stroke-width="2" stroke-linecap="round" stroke-linejoin="round"/>
<path d="M4.16667 2.5C3.72464 2.5 3.30072 2.67559 2.98816 2.98816C2.67559 3.30072 2.5 3.72464 2.5 4.16667V9.16667C2.5 9.60869 2.67559 10.0326 2.98816 10.3452C3.30072 10.6577 3.72464 10.8333 4.16667 10.8333C4.38768 10.8333 4.59964 10.9211 4.75592 11.0774C4.9122 11.2337 5 11.4457 5 11.6667V12.5C5 12.942 4.82441 13.366 4.51184 13.6785C4.19928 13.9911 3.77536 14.1667 3.33333 14.1667C3.11232 14.1667 2.90036 14.2545 2.74408 14.4107C2.5878 14.567 2.5 14.779 2.5 15V16.6667C2.5 16.8877 2.5878 17.0996 2.74408 17.2559C2.90036 17.4122 3.11232 17.5 3.33333 17.5C4.65942 17.5 5.93119 16.9732 6.86887 16.0355C7.80655 15.0979 8.33333 13.8261 8.33333 12.5V4.16667C8.33333 3.72464 8.15774 3.30072 7.84518 2.98816C7.53262 2.67559 7.10869 2.5 6.66667 2.5H4.16667Z" stroke="#C4C4C4" stroke-width="2" stroke-linecap="round" stroke-linejoin="round"/>
</svg>
