<svg width="28" height="28" viewBox="0 0 28 28" fill="none" xmlns="http://www.w3.org/2000/svg">
<path d="M12.1797 2.64844C17.4352 2.64844 21.7117 6.92418 21.7119 12.1797C21.7142 14.2372 21.0463 16.2397 19.8105 17.8848L19.7988 17.9014L24.959 23.0615C25.187 23.3173 25.3083 23.6506 25.2988 23.9932C25.2892 24.3364 25.1491 24.6634 24.9062 24.9062C24.6634 25.1491 24.3364 25.2892 23.9932 25.2988C23.6929 25.3072 23.4002 25.2146 23.1602 25.0381L23.0605 24.958L17.9014 19.7988L17.8848 19.8105C16.2397 21.0463 14.2372 21.7142 12.1797 21.7119C6.92418 21.7117 2.64844 17.4352 2.64844 12.1797C2.64861 6.92429 6.92429 2.64861 12.1797 2.64844ZM13.5156 5.46289C12.1875 5.1988 10.8107 5.3344 9.55957 5.85254C8.30818 6.37088 7.23787 7.24878 6.48535 8.375C5.73291 9.50113 5.33209 10.8253 5.33203 12.1797C5.33421 13.9953 6.05599 15.7367 7.33984 17.0205C8.62361 18.3042 10.3642 19.0261 12.1797 19.0283C13.5341 19.0283 14.8582 18.6265 15.9844 17.874C17.1106 17.1215 17.9885 16.0521 18.5068 14.8008C19.0252 13.5494 19.1607 12.1722 18.8965 10.8438C18.6322 9.51546 17.9801 8.29558 17.0225 7.33789C16.0647 6.38012 14.8441 5.72714 13.5156 5.46289Z" fill="#232321" stroke="#232321" stroke-width="0.046875"/>
</svg>
