<svg width="24" height="24" viewBox="0 0 24 24" fill="none" xmlns="http://www.w3.org/2000/svg">
<path d="M9 22H15C20 22 22 20 22 15V9C22 4 20 2 15 2H9C4 2 2 4 2 9V15C2 20 4 22 9 22Z" stroke="#9197B3" stroke-width="1.5" stroke-linecap="round" stroke-linejoin="round"/>
<g clip-path="url(#clip0_64_25)">
<path d="M14.3333 9.66669H10.8333C10.5239 9.66669 10.2272 9.7896 10.0084 10.0084C9.78957 10.2272 9.66666 10.5239 9.66666 10.8334C9.66666 11.1428 9.78957 11.4395 10.0084 11.6583C10.2272 11.8771 10.5239 12 10.8333 12H13.1667C13.4761 12 13.7728 12.1229 13.9916 12.3417C14.2104 12.5605 14.3333 12.8573 14.3333 13.1667C14.3333 13.4761 14.2104 13.7729 13.9916 13.9916C13.7728 14.2104 13.4761 14.3334 13.1667 14.3334H9.66666M12 15.5V8.50002M17.8333 12C17.8333 15.2217 15.2217 17.8334 12 17.8334C8.77833 17.8334 6.16666 15.2217 6.16666 12C6.16666 8.77836 8.77833 6.16669 12 6.16669C15.2217 6.16669 17.8333 8.77836 17.8333 12Z" stroke="#9197B3" stroke-linecap="round" stroke-linejoin="round"/>
</g>
<defs>
<clipPath id="clip0_64_25">
<rect width="14" height="14" fill="white" transform="translate(5 5)"/>
</clipPath>
</defs>
</svg>
