<svg width="14" height="14" viewBox="0 0 14 14" fill="none" xmlns="http://www.w3.org/2000/svg">
<path d="M6.66667 13.3333C5.74444 13.3333 4.87778 13.1582 4.06667 12.808C3.25556 12.4578 2.55 11.9829 1.95 11.3833C1.35 10.7838 0.875111 10.0782 0.525333 9.26667C0.175556 8.45511 0.000444444 7.58844 0 6.66667C0 5.2 0.427778 3.88067 1.28333 2.70867C2.13889 1.53667 3.26667 0.733778 4.66667 0.3V1.73333C3.65556 2.14444 2.84733 2.79733 2.242 3.692C1.63667 4.58667 1.33378 5.57822 1.33333 6.66667C1.33333 8.15556 1.85 9.41667 2.88333 10.45C3.91667 11.4833 5.17778 12 6.66667 12C8.15555 12 9.41667 11.4833 10.45 10.45C11.4833 9.41667 12 8.15556 12 6.66667C12 5.57778 11.6973 4.58622 11.092 3.692C10.4867 2.79778 9.67822 2.14489 8.66667 1.73333V0.3C10.0667 0.733333 11.1944 1.53622 12.05 2.70867C12.9056 3.88111 13.3333 5.20044 13.3333 6.66667C13.3333 7.58889 13.1582 8.45556 12.808 9.26667C12.4578 10.0778 11.9829 10.7833 11.3833 11.3833C10.7838 11.9833 10.0782 12.4584 9.26667 12.8087C8.45511 13.1589 7.58844 13.3338 6.66667 13.3333ZM6.66667 9.33333L3.33333 6L4.26667 5.06667L6 6.78333V0H7.33333V6.78333L9.06667 5.06667L10 6L6.66667 9.33333Z" fill="#2ED889"/>
</svg>
